<?xml version="1.0" encoding="UTF-8" standalone="no"?>
<svg
   width="600"
   height="64"
   viewBox="0 0 600 64"
   fill="none"
   version="1.1"
   id="svg19"
   sodipodi:docname="lines.svg"
   inkscape:version="1.3 (0e150ed6c4, 2023-07-21)"
   xmlns:inkscape="http://www.inkscape.org/namespaces/inkscape"
   xmlns:sodipodi="http://sodipodi.sourceforge.net/DTD/sodipodi-0.dtd"
   xmlns:xlink="http://www.w3.org/1999/xlink"
   xmlns="http://www.w3.org/2000/svg"
   xmlns:svg="http://www.w3.org/2000/svg">
  <defs
     id="defs19">
    <pattern
       inkscape:collect="always"
       xlink:href="#DecorativePaper"
       preserveAspectRatio="xMidYMid"
       id="pattern178"
       patternTransform="scale(0.5)" />
    <pattern
       inkscape:collect="always"
       xlink:href="#DecorativePaper"
       preserveAspectRatio="xMidYMid"
       id="pattern177"
       patternTransform="scale(0.5)" />
    <pattern
       inkscape:collect="always"
       xlink:href="#DecorativePaper"
       preserveAspectRatio="xMidYMid"
       id="pattern176"
       patternTransform="scale(0.5)" />
    <pattern
       inkscape:collect="always"
       xlink:href="#DecorativePaper"
       preserveAspectRatio="xMidYMid"
       id="pattern175"
       patternTransform="scale(0.5)" />
    <pattern
       inkscape:collect="always"
       xlink:href="#DecorativePaper"
       preserveAspectRatio="xMidYMid"
       id="pattern174"
       patternTransform="scale(0.5)" />
    <pattern
       inkscape:collect="always"
       xlink:href="#DecorativePaper"
       preserveAspectRatio="xMidYMid"
       id="pattern173"
       patternTransform="scale(0.5)" />
    <pattern
       inkscape:collect="always"
       xlink:href="#DecorativePaper"
       preserveAspectRatio="xMidYMid"
       id="pattern172"
       patternTransform="scale(0.5)" />
    <pattern
       inkscape:collect="always"
       xlink:href="#DecorativePaper"
       preserveAspectRatio="xMidYMid"
       id="pattern171"
       patternTransform="scale(0.5)" />
    <pattern
       inkscape:collect="always"
       xlink:href="#DecorativePaper"
       preserveAspectRatio="xMidYMid"
       id="pattern170"
       patternTransform="scale(0.5)" />
    <pattern
       inkscape:collect="always"
       xlink:href="#DecorativePaper"
       preserveAspectRatio="xMidYMid"
       id="pattern169"
       patternTransform="scale(0.5)" />
    <pattern
       inkscape:collect="always"
       xlink:href="#DecorativePaper"
       preserveAspectRatio="xMidYMid"
       id="pattern168"
       patternTransform="scale(0.5)" />
    <pattern
       inkscape:collect="always"
       xlink:href="#DecorativePaper"
       preserveAspectRatio="xMidYMid"
       id="pattern167"
       patternTransform="scale(0.5)" />
    <pattern
       inkscape:collect="always"
       xlink:href="#DecorativePaper"
       preserveAspectRatio="xMidYMid"
       id="pattern166"
       patternTransform="scale(0.5)" />
    <pattern
       inkscape:collect="always"
       xlink:href="#DecorativePaper"
       preserveAspectRatio="xMidYMid"
       id="pattern165"
       patternTransform="scale(0.5)" />
    <pattern
       inkscape:collect="always"
       xlink:href="#DecorativePaper"
       preserveAspectRatio="xMidYMid"
       id="pattern164"
       patternTransform="scale(0.5)" />
    <pattern
       inkscape:collect="always"
       xlink:href="#DecorativePaper"
       preserveAspectRatio="xMidYMid"
       id="pattern163"
       patternTransform="scale(0.5)" />
    <pattern
       inkscape:collect="always"
       xlink:href="#DecorativePaper"
       preserveAspectRatio="xMidYMid"
       id="pattern162"
       patternTransform="scale(0.5)" />
    <pattern
       inkscape:collect="always"
       xlink:href="#DecorativePaper"
       preserveAspectRatio="xMidYMid"
       id="pattern161"
       patternTransform="scale(0.5)" />
    <pattern
       inkscape:collect="always"
       xlink:href="#DecorativePaper"
       preserveAspectRatio="xMidYMid"
       id="pattern160"
       patternTransform="scale(0.5)" />
    <pattern
       patternUnits="userSpaceOnUse"
       width="100"
       height="100"
       id="DecorativePaper"
       style="fill:#000000"
       inkscape:stockid="Decorative Paper"
       preserveAspectRatio="xMidYMid"
       patternTransform="scale(0.5,0.5)"
       inkscape:collect="always"
       inkscape:isstock="true"
       inkscape:label="Papel decorativo">
      <path
         id="path163941"
         style="opacity:1;fill-opacity:0.994819;stroke-width:1"
         inkscape:transform-center-x="-0.022809513"
         inkscape:transform-center-y="0.17213445"
         d="m 95.49805,0 c 0.2337,0.655687 1.33166,1.004203 1.73437,1.650391 l 0.002,0.0019 c 0.0425,0.01128 0.0803,0.0198 0.12305,0.03125 -0.0136,0.05056 -0.0274,0.09646 -0.041,0.146484 0.33338,0.766429 0.14131,1.975512 0.89062,2.279297 C 98.81461,4.355647 99.39115,3.738046 100,3.326122 V 0 Z m 1.81836,1.830078 c -0.0263,-0.06034 -0.0485,-0.123616 -0.082,-0.177734 -5.39503,-1.43204 -9.126682,-1.557222 -12.402348,0.333984 -4.330124,2.499998 -5.92927,5.732002 -7.027343,9.830078 4.098069,1.098079 9.063243,1.697264 12.527341,-0.302734 3.43205,-1.981503 5.52214,-4.326625 6.98438,-9.683594 z M 100,3.666016 C 96.44152,7.35613 94.63867,10.404321 94.63867,14 c 0,4.999995 2.00001,8.000013 5,11 0.12095,-0.120944 0.24058,-0.252824 0.36133,-0.376953 z m 0,71.001953 C 97.22825,77.581702 94.63867,81.285412 94.63867,85 c 0,3.956986 0.98357,6.93711 4.87696,10.87305 0.0495,0.0325 0.0999,0.061 0.14843,0.0996 C 99.78318,95.85337 99.88445,95.74091 100,95.62304 Z M 99.66406,95.97266 c -0.009,0.009 -0.0162,0.0182 -0.0254,0.0273 -0.043,-0.043 -0.0807,-0.0842 -0.12304,-0.12696 -0.22218,-0.1458 -0.45293,-0.23001 -0.71094,-0.16601 -0.84738,0.2102 -0.75052,1.62874 -1.3125,2.29687 -0.56199,0.66813 -1.97713,0.81665 -2.03906,1.6875 -0.008,0.11138 0.0106,0.21244 0.0449,0.3086 H 100 V 96.27535 C 99.88915,96.166 99.77708,96.06253 99.66406,95.97262 Z M 83.5,85.529297 c -1.704673,-0.0074 -3.402407,0.306702 -5.195312,0.787109 1.098075,4.098074 3.063245,8.697264 6.527343,10.697264 3.464096,2 6.561299,2.63403 12.025389,1.16992 C 95.39332,92.7195 93.63351,89.392441 90.33203,87.486328 87.896338,86.08008 85.691722,85.538783 83.5,85.529297 Z M 0.638672,74 C 0.424614,74.214058 0.212968,74.444092 0,74.667969 V 95.62305 C 3.746981,91.80072 5.638672,88.689684 5.638672,85 c 0,-4.999995 -2.000004,-8.000003 -5,-11 z m 15.332031,12.173828 c -2.186294,-0.03678 -4.293342,0.312503 -6.025391,1.3125 -3.454717,1.994583 -5.550106,4.354532 -7.013671,9.787112 0.182098,0.0273 0.35088,0.0716 0.486328,0.16601 5.188444,1.33602 8.830172,1.42011 12.027343,-0.42578 4.330122,-2.5 5.929273,-5.732 7.027344,-9.830076 -2.049035,-0.549037 -4.315658,-0.972987 -6.501953,-1.009766 z M 3.417969,97.43945 c -0.169265,-0.0436 -0.325421,-0.0768 -0.498047,-0.12304 0.004,-0.0148 0.0077,-0.0282 0.01172,-0.043 C 2.343505,97.18521 1.579644,97.34221 1.039064,97.12302 0.658911,96.96893 0.330006,96.60093 0,96.27539 V 100 H 3.017578 C 3.213131,99.19311 4.051132,98.33961 3.628906,97.66211 3.571186,97.56951 3.499814,97.49652 3.417969,97.43945 Z M 0,0 V 3.326172 C 0.200629,3.190434 0.405626,3.078197 0.615234,3.025391 c 0.0085,-0.0085 0.01493,-0.01688 0.02344,-0.02539 0.0064,0.0064 0.01121,0.01315 0.01758,0.01953 C 1.502169,2.836995 2.705571,3.514336 3.25977,2.855468 3.821753,2.187341 2.910716,1.095463 2.972656,0.224609 2.97796,0.150044 2.999266,0.075558 3.017578,0 Z m 0.65625,3.019531 c -0.01189,0.0026 -0.02537,9.93e-4 -0.03711,0.0039 -0.0014,3.4e-4 -0.0025,0.0016 -0.0039,0.002 C 0.396993,3.243908 0.206283,3.452101 0,3.666016 V 24.623047 C 2.874373,21.668176 5.638672,17.838737 5.638672,14 5.638672,10.006389 4.640295,7.009952 0.65625,3.019531 Z M 8.712891,0.015625 C 7.185226,0.013225 5.468957,0.26737 3.419922,0.816406 c 1.464098,5.464097 3.223909,8.791155 6.52539,10.697266 4.330119,2.499997 7.929269,2.267996 12.027344,1.169922 C 20.874579,8.585521 18.90941,3.986329 15.445312,1.986328 13.280254,0.736331 11.258999,0.019694 8.712891,0.015625 Z m 44.546711,52.839891 c -0.561988,0.668128 -1.792958,-0.04298 -2.640332,0.167217 -0.847373,0.210199 -1.603289,1.414175 -2.41238,1.086156 -0.809091,-0.328019 -0.513177,-1.718487 -0.974941,-2.459432 -0.461764,-0.740944 -1.840403,-1.087814 -1.778461,-1.958669 0.06194,-0.870855 1.475797,-1.019102 2.037785,-1.68723 0.561987,-0.668128 0.465857,-2.086481 1.31323,-2.29668 0.847374,-0.210199 1.42527,1.088647 2.234362,1.416666 0.809091,0.328019 2.128319,-0.201701 2.590082,0.539244 0.461764,0.740945 -0.594932,1.691923 -0.656874,2.562778 -0.06194,0.870855 0.849517,1.961822 0.287529,2.62995 z m 6.686643,8.657629 c 4.330123,2.5 7.928198,2.267947 12.026277,1.169872 -1.098078,-4.098077 -3.06218,-8.696152 -6.526281,-10.696155 -3.464097,-1.999997 -6.562176,-2.63397 -12.026275,-1.169872 1.4641,5.464102 3.224794,8.790042 6.526279,10.696155 z M 40.331514,37.486862 c -4.330126,-2.5 -7.928205,-2.267947 -12.026279,-1.169872 1.098077,4.098077 3.062179,8.696152 6.526281,10.696155 3.464099,2 6.562173,2.633975 12.026274,1.169872 -1.464102,-5.464102 -3.224797,-8.79004 -6.526276,-10.696155 z m 25.114727,9.526283 c 4.330126,-2.500003 5.928206,-5.732053 7.026278,-9.830128 -4.098074,-1.098075 -9.062173,-1.696152 -12.526274,0.303845 -3.464105,2.000003 -5.562179,4.366028 -7.026281,9.830128 5.464103,1.4641 9.2248,1.602267 12.526277,-0.303845 z m -30.614725,4.973717 c -4.330129,2.5 -5.928204,5.732053 -7.026279,9.830128 4.098074,1.09808 9.062173,1.696155 12.526277,-0.303845 3.464099,-2.000003 5.562171,-4.366025 7.026274,-9.830128 -5.464099,-1.464102 -9.224793,-1.602265 -12.526272,0.303845 z m 20.80736,-16.986857 c 0,-5 -2,-8 -4.999999,-11 -3,3 -5.999996,6.999997 -5.999996,11 0,4 0.999999,7 4.999996,11 3.999999,-4 5.999999,-7.187775 5.999999,-11 z m -10.999995,29 c 0,5 1.999999,8 4.999996,10.999999 3,-3 5.999999,-6.999999 5.999999,-10.999999 0,-4.000003 -1,-7.000003 -4.999999,-11 -3.999997,3.999997 -5.999996,7.187775 -5.999996,11 z m 6.361112,32.000005 a 3,3 0 0 0 3,3 3,3 0 0 0 3,-3 3,3 0 0 0 -3,-3 3,3 0 0 0 -3,3 z M 92.99998,54.000005 a 3,3 0 0 0 3,3 3,3 0 0 0 3,-3 3,3 0 0 0 -3,-3 3,3 0 0 0 -3,3 z m -6.999996,6.999997 a 3,3 0 0 0 3,3 3,3 0 0 0 3,-3 3,3 0 0 0 -3,-3 3,3 0 0 0 -3,3 z m -6.999995,7.000003 a 3,3 0 0 0 3,3 3,3 0 0 0 3,-3 3,3 0 0 0 -3,-3 3,3 0 0 0 -3,3 z m -7.000001,6.999997 a 3,3 0 0 0 3,3 3,3 0 0 0 3,-3 3,3 0 0 0 -3,-3 3,3 0 0 0 -3,3 z m -6.999999,7.000003 a 3,3 0 0 0 3,3 3,3 0 0 0 3,-3 3,3 0 0 0 -3,-3 3,3 0 0 0 -3,3 z m -6.999998,6.999997 A 3,3 0 0 0 60.999993,92 a 3,3 0 0 0 3,-3 3,3 0 0 0 -3,-3 3,3 0 0 0 -3,3 z m -56.999983,-43 a 3,3 0 0 0 3,3 3,3 0 0 0 3,-3 3,3 0 0 0 -3,-3 3,3 0 0 0 -3,3 z M 42.999995,4.000006 a 3,3 0 0 0 3,3 3,3 0 0 0 3,-3 3,3 0 0 0 -3,-3.000004 3,3 0 0 0 -3,3.000004 z m -6.999999,6.999998 a 3,3 0 0 0 3,3 3,3 0 0 0 3,-3 3,3 0 0 0 -3,-3 3,3 0 0 0 -3,3 z m -6.999995,6.999999 A 3,3 0 0 0 32,21.000002 a 3,3 0 0 0 3,-3 3,3 0 0 0 -3,-3 3,3 0 0 0 -3,3 z M 22,25.000005 a 3,3 0 0 0 3,3 3,3 0 0 0 3,-3 3,3 0 0 0 -3,-3 3,3 0 0 0 -3,3 z m -6.999997,6.999997 a 3,3 0 0 0 3,3 3,3 0 0 0 3,-3 3,3 0 0 0 -3,-3 3,3 0 0 0 -3,3 z m -6.999999,7.000003 a 3,3 0 0 0 3,3 3,3 0 0 0 3,-3 3,3 0 0 0 -3,-3 3,3 0 0 0 -3,3 z m 90.999976,6.999997 a 3,3 0 0 1 -3,3 3,3 0 0 1 -3,-3 3,3 0 0 1 3,-3 3,3 0 0 1 3,3 z M 56.999991,4.000006 a 3,3 0 0 1 -3,3 3,3 0 0 1 -3,-3 3,3 0 0 1 3,-3.000004 3,3 0 0 1 3,3.000004 z m 7.000001,6.999998 a 3,3 0 0 1 -3,3 3,3 0 0 1 -3,-3 3,3 0 0 1 3,-3 3,3 0 0 1 3,3 z m 6.999996,6.999999 a 3,3 0 0 1 -3,3 3,3 0 0 1 -3,-3 3,3 0 0 1 3,-3 3,3 0 0 1 3,3 z m 7.000001,7.000002 a 3,3 0 0 1 -3,3 3,3 0 0 1 -3,-3 3,3 0 0 1 3,-3 3,3 0 0 1 3,3 z m 6.999996,6.999997 a 3,3 0 0 1 -3,3 3,3 0 0 1 -3,-3 3,3 0 0 1 3,-3 3,3 0 0 1 3,3 z m 6.999995,7.000003 a 3,3 0 0 1 -3,3 3,3 0 0 1 -3,-3 3,3 0 0 1 3,-3 3,3 0 0 1 3,3 z M 48.999993,96.00001 a 3,3 0 0 1 -3,3 3,3 0 0 1 -3,-3 3,3 0 0 1 3,-3 3,3 0 0 1 3,3 z M 7.000004,54.000005 a 3,3 0 0 1 -3,3 3,3 0 0 1 -3,-3 3,3 0 0 1 3,-3 3,3 0 0 1 3,3 z m 7,6.999997 a 3,3 0 0 1 -3,3 3,3 0 0 1 -3,-3 3,3 0 0 1 3,-3 3,3 0 0 1 3,3 z M 21,68.000005 a 3,3 0 0 1 -3,3 3,3 0 0 1 -3,-3 3,3 0 0 1 3,-3 3,3 0 0 1 3,3 z m 7.000001,6.999998 A 3,3 0 0 1 24.999999,78.000002 3,3 0 0 1 22,75.000003 a 3,3 0 0 1 3,-3 3,3 0 0 1 3,3 z m 6.999996,7.000002 a 3,3 0 0 1 -3,3 3,3 0 0 1 -3,-3 3,3 0 0 1 3,-3 3,3 0 0 1 3,3 z m 6.999998,6.999997 A 3,3 0 0 1 38.999996,92 a 3,3 0 0 1 -3,-3 3,3 0 0 1 3,-3 3,3 0 0 1 3,3 z" />
    </pattern>
    <clipPath
       clipPathUnits="userSpaceOnUse"
       id="clipPath33">
      <rect
         style="fill:#000000;stroke:none;stroke-width:0.999995;stroke-linecap:butt;stroke-linejoin:bevel;paint-order:stroke markers fill;stop-color:#000000"
         id="rect33"
         width="46.19186"
         height="80.006783"
         x="74.999985"
         y="399.99661" />
    </clipPath>
  </defs>
  <sodipodi:namedview
     id="namedview19"
     pagecolor="#ffffff"
     bordercolor="#000000"
     borderopacity="0.25"
     inkscape:showpageshadow="2"
     inkscape:pageopacity="0.0"
     inkscape:pagecheckerboard="0"
     inkscape:deskcolor="#d1d1d1"
     inkscape:zoom="1.235"
     inkscape:cx="445.74899"
     inkscape:cy="32.793522"
     inkscape:window-width="1366"
     inkscape:window-height="697"
     inkscape:window-x="-8"
     inkscape:window-y="-8"
     inkscape:window-maximized="1"
     inkscape:current-layer="svg19" />
  <rect
     width="600"
     height="63.8599"
     fill="white"
     id="rect1"
     style="fill:#ffffff;fill-opacity:0" />
  <path
     d="M292.133 63.8599H276.498L311.042 0H326.628L292.133 63.8599Z"
     fill="#FFDD00"
     id="path1"
     style="fill:#ffdb02;fill-opacity:1;stroke:url(#pattern169)" />
  <path
     d="M322.72 63.8599H307.085L341.58 0H357.215L322.72 63.8599Z"
     fill="#FFDD00"
     id="path2"
     style="fill:#020f1f;fill-opacity:1;stroke:url(#pattern170)" />
  <path
     d="M353.306 63.8599H337.671L372.166 0H387.801L353.306 63.8599Z"
     fill="#FFDD00"
     id="path3"
     style="fill:#ffdb02;fill-opacity:1;stroke:url(#pattern171)" />
  <path
     d="M383.843 63.8599H368.257L402.752 0H418.338L383.843 63.8599Z"
     fill="#FFDD00"
     id="path4"
     style="fill:#020f1f;fill-opacity:1;stroke:url(#pattern172)" />
  <path
     d="M 416.49152,63.8599 H 401.61415 L 434.48425,0 H 449.315 Z"
     fill="#ffdd00"
     id="path5"
     style="stroke-width:0.975471;fill:#ffdb02;fill-opacity:1;stroke:url(#pattern173)" />
  <path
     d="M445.407 63.8599H429.771L464.267 0H479.902L445.407 63.8599Z"
     fill="#FFDD00"
     id="path6"
     style="fill:#020f1f;fill-opacity:1;stroke:url(#pattern174)" />
  <path
     d="M169.837 63.8599H154.201L188.745 0H204.332L169.837 63.8599Z"
     fill="#FFDD00"
     id="path7"
     style="fill:#ffdb02;fill-opacity:1;stroke:url(#pattern165)" />
  <path
     d="M200.423 63.8599H184.788L219.283 0H234.918L200.423 63.8599Z"
     fill="#FFDD00"
     id="path8"
     style="fill:#020f1f;fill-opacity:1;stroke:url(#pattern166)" />
  <path
     d="M231.009 63.8599H215.374L249.869 0H265.504L231.009 63.8599Z"
     fill="#FFDD00"
     id="path9"
     style="fill:#ffdb02;fill-opacity:1;stroke:url(#pattern167)" />
  <path
     d="M261.547 63.8599H245.96L280.456 0H296.091L261.547 63.8599Z"
     fill="#FFDD00"
     id="path10"
     style="fill:#020f1f;fill-opacity:1;stroke:url(#pattern168)" />
  <path
     d="M46.1726 63.8599H30.5863L65.0814 0H80.7166L46.1726 63.8599Z"
     fill="#FFDD00"
     id="path11"
     style="fill:#ffdb02;fill-opacity:1;stroke:url(#pattern161)" />
  <path
     d="M76.7589 63.8599H61.1238L95.6677 0H111.254L76.7589 63.8599Z"
     fill="#FFDD00"
     id="path12"
     style="fill:#020f1f;fill-opacity:1;stroke:url(#pattern162)" />
  <path
     d="M107.345 63.8599H91.7101L126.254 0H141.84L107.345 63.8599Z"
     fill="#FFDD00"
     id="path13"
     style="fill:#ffdb02;fill-opacity:1;stroke:url(#pattern163)" />
  <path
     d="M137.931 63.8599H122.296L156.791 0H172.426L137.931 63.8599Z"
     fill="#FFDD00"
     id="path14"
     style="fill:#020f1f;fill-opacity:1;stroke:url(#pattern164)" />
  <path
     d="M15.6352 63.8599H0L34.4951 0H50.1303L15.6352 63.8599Z"
     fill="#FFDD00"
     id="path15"
     style="fill:#020f1f;fill-opacity:1;stroke:url(#pattern160)" />
  <path
     d="M473.795 63.8599H458.16L492.655 0H508.29L473.795 63.8599Z"
     fill="#FFDD00"
     id="path16"
     style="fill:#ffdb02;fill-opacity:1;stroke:url(#pattern175)" />
  <path
     d="M504.332 63.8599H488.745L523.24 0H538.876L504.332 63.8599Z"
     fill="#FFDD00"
     id="path17"
     style="fill:#020f1f;fill-opacity:1;stroke:url(#pattern176)" />
  <path
     d="M534.918 63.8599H519.332L553.827 0H569.413L534.918 63.8599Z"
     fill="#FFDD00"
     id="path18"
     style="fill:#ffdb02;fill-opacity:1;stroke:url(#pattern177)" />
  <path
     d="M565.505 63.8599H549.87L584.365 0H600L565.505 63.8599Z"
     fill="#FFDD00"
     id="path19"
     style="fill:#020f1f;fill-opacity:1;stroke:url(#pattern178)" />
</svg>
